<?xml version="1.0" standalone="no"?>
<!DOCTYPE svg PUBLIC "-//W3C//DTD SVG 20010904//EN"
 "http://www.w3.org/TR/2001/REC-SVG-20010904/DTD/svg10.dtd">
<svg version="1.0" xmlns="http://www.w3.org/2000/svg"
 width="512.000000pt" height="512.000000pt" viewBox="0 0 512.000000 512.000000"
 preserveAspectRatio="xMidYMid meet">

<g transform="translate(0.000000,512.000000) scale(0.100000,-0.100000)"
fill="#000000" stroke="none">
<path d="M279 5097 c-121 -41 -204 -119 -251 -234 l-23 -58 -3 -2225 c-2
-2190 -2 -2226 17 -2290 38 -123 121 -214 238 -262 l58 -23 2240 0 c1786 0
2249 3 2282 13 68 20 164 91 206 152 20 30 46 83 57 118 20 63 20 101 20 2272
0 2171 0 2209 -20 2272 -43 141 -143 237 -285 274 -41 11 -450 14 -2260 14
l-2210 -1 -66 -22z m1803 -1779 l3 -591 95 144 c173 262 703 1031 714 1035 6
2 187 3 403 2 l391 -3 -454 -595 -453 -594 18 -31 c13 -21 850 -1405 888
-1467 2 -5 -169 -8 -381 -8 l-385 0 -277 488 c-153 268 -283 493 -289 500 -9
10 -39 -16 -143 -130 l-131 -143 -1 -357 0 -358 -325 0 -325 0 0 1350 0 1350
325 0 325 0 2 -592z"/>
</g>
</svg>
